<?xml version="1.0" encoding="UTF-8"?>
<!-- Do not edit this file with editors other than draw.io -->
<!DOCTYPE svg PUBLIC "-//W3C//DTD SVG 1.1//EN" "http://www.w3.org/Graphics/SVG/1.1/DTD/svg11.dtd">
<svg xmlns="http://www.w3.org/2000/svg" xmlns:xlink="http://www.w3.org/1999/xlink" version="1.1" width="868px" height="83px" viewBox="-0.5 -0.5 868 83" content="&lt;mxfile host=&quot;app.diagrams.net&quot; modified=&quot;2024-05-04T00:22:06.610Z&quot; agent=&quot;Mozilla/5.0 (Macintosh; Intel Mac OS X 10_15_7) AppleWebKit/605.1.15 (KHTML, like Gecko) Version/17.1 Safari/605.1.15&quot; etag=&quot;A-k-k6e8dxpgoPDK02fg&quot; version=&quot;24.3.1&quot; type=&quot;device&quot;&gt;&#10;  &lt;diagram name=&quot;Sida-1&quot; id=&quot;9aN8Y3X9PtZfLrBVxDiX&quot;&gt;&#10;    &lt;mxGraphModel dx=&quot;1781&quot; dy=&quot;727&quot; grid=&quot;1&quot; gridSize=&quot;10&quot; guides=&quot;1&quot; tooltips=&quot;1&quot; connect=&quot;1&quot; arrows=&quot;1&quot; fold=&quot;1&quot; page=&quot;1&quot; pageScale=&quot;1&quot; pageWidth=&quot;827&quot; pageHeight=&quot;1169&quot; math=&quot;0&quot; shadow=&quot;0&quot;&gt;&#10;      &lt;root&gt;&#10;        &lt;mxCell id=&quot;0&quot; /&gt;&#10;        &lt;mxCell id=&quot;1&quot; parent=&quot;0&quot; /&gt;&#10;        &lt;mxCell id=&quot;8nvRI29aEsvCDXP-nSqx-1&quot; value=&quot;&quot; style=&quot;sketch=0;points=[[0,0,0],[0.25,0,0],[0.5,0,0],[0.75,0,0],[1,0,0],[0,1,0],[0.25,1,0],[0.5,1,0],[0.75,1,0],[1,1,0],[0,0.25,0],[0,0.5,0],[0,0.75,0],[1,0.25,0],[1,0.5,0],[1,0.75,0]];outlineConnect=0;fontColor=#232F3E;fillColor=#7AA116;strokeColor=#ffffff;dashed=0;verticalLabelPosition=bottom;verticalAlign=top;align=center;html=1;fontSize=12;fontStyle=0;aspect=fixed;shape=mxgraph.aws4.resourceIcon;resIcon=mxgraph.aws4.s3;&quot; parent=&quot;1&quot; vertex=&quot;1&quot;&gt;&#10;          &lt;mxGeometry x=&quot;749&quot; y=&quot;242&quot; width=&quot;78&quot; height=&quot;78&quot; as=&quot;geometry&quot; /&gt;&#10;        &lt;/mxCell&gt;&#10;        &lt;mxCell id=&quot;8nvRI29aEsvCDXP-nSqx-2&quot; value=&quot;&quot; style=&quot;shape=image;html=1;verticalAlign=top;verticalLabelPosition=bottom;labelBackgroundColor=#ffffff;imageAspect=0;aspect=fixed;image=https://cdn4.iconfinder.com/data/icons/office-time/512/3-128.png&quot; parent=&quot;1&quot; vertex=&quot;1&quot;&gt;&#10;          &lt;mxGeometry x=&quot;600&quot; y=&quot;240&quot; width=&quot;80&quot; height=&quot;80&quot; as=&quot;geometry&quot; /&gt;&#10;        &lt;/mxCell&gt;&#10;        &lt;mxCell id=&quot;8nvRI29aEsvCDXP-nSqx-3&quot; value=&quot;&quot; style=&quot;sketch=0;points=[[0,0,0],[0.25,0,0],[0.5,0,0],[0.75,0,0],[1,0,0],[0,1,0],[0.25,1,0],[0.5,1,0],[0.75,1,0],[1,1,0],[0,0.25,0],[0,0.5,0],[0,0.75,0],[1,0.25,0],[1,0.5,0],[1,0.75,0]];outlineConnect=0;fontColor=#232F3E;fillColor=#01A88D;strokeColor=#ffffff;dashed=0;verticalLabelPosition=bottom;verticalAlign=top;align=center;html=1;fontSize=12;fontStyle=0;aspect=fixed;shape=mxgraph.aws4.resourceIcon;resIcon=mxgraph.aws4.bedrock;&quot; parent=&quot;1&quot; vertex=&quot;1&quot;&gt;&#10;          &lt;mxGeometry x=&quot;440&quot; y=&quot;242&quot; width=&quot;78&quot; height=&quot;78&quot; as=&quot;geometry&quot; /&gt;&#10;        &lt;/mxCell&gt;&#10;        &lt;mxCell id=&quot;8nvRI29aEsvCDXP-nSqx-4&quot; value=&quot;&quot; style=&quot;sketch=0;points=[[0,0,0],[0.25,0,0],[0.5,0,0],[0.75,0,0],[1,0,0],[0,1,0],[0.25,1,0],[0.5,1,0],[0.75,1,0],[1,1,0],[0,0.25,0],[0,0.5,0],[0,0.75,0],[1,0.25,0],[1,0.5,0],[1,0.75,0]];outlineConnect=0;fontColor=#232F3E;fillColor=#ED7100;strokeColor=#ffffff;dashed=0;verticalLabelPosition=bottom;verticalAlign=top;align=center;html=1;fontSize=12;fontStyle=0;aspect=fixed;shape=mxgraph.aws4.resourceIcon;resIcon=mxgraph.aws4.lambda;&quot; parent=&quot;1&quot; vertex=&quot;1&quot;&gt;&#10;          &lt;mxGeometry x=&quot;280&quot; y=&quot;244&quot; width=&quot;78&quot; height=&quot;78&quot; as=&quot;geometry&quot; /&gt;&#10;        &lt;/mxCell&gt;&#10;        &lt;mxCell id=&quot;8nvRI29aEsvCDXP-nSqx-5&quot; value=&quot;&quot; style=&quot;sketch=0;points=[[0,0,0],[0.25,0,0],[0.5,0,0],[0.75,0,0],[1,0,0],[0,1,0],[0.25,1,0],[0.5,1,0],[0.75,1,0],[1,1,0],[0,0.25,0],[0,0.5,0],[0,0.75,0],[1,0.25,0],[1,0.5,0],[1,0.75,0]];outlineConnect=0;fontColor=#232F3E;fillColor=#8C4FFF;strokeColor=#ffffff;dashed=0;verticalLabelPosition=bottom;verticalAlign=top;align=center;html=1;fontSize=12;fontStyle=0;aspect=fixed;shape=mxgraph.aws4.resourceIcon;resIcon=mxgraph.aws4.api_gateway;&quot; parent=&quot;1&quot; vertex=&quot;1&quot;&gt;&#10;          &lt;mxGeometry x=&quot;120&quot; y=&quot;242&quot; width=&quot;80&quot; height=&quot;80&quot; as=&quot;geometry&quot; /&gt;&#10;        &lt;/mxCell&gt;&#10;        &lt;mxCell id=&quot;8nvRI29aEsvCDXP-nSqx-6&quot; value=&quot;&quot; style=&quot;sketch=0;outlineConnect=0;fontColor=#232F3E;gradientColor=none;fillColor=#232F3D;strokeColor=none;dashed=0;verticalLabelPosition=bottom;verticalAlign=top;align=center;html=1;fontSize=12;fontStyle=0;aspect=fixed;pointerEvents=1;shape=mxgraph.aws4.client;&quot; parent=&quot;1&quot; vertex=&quot;1&quot;&gt;&#10;          &lt;mxGeometry x=&quot;-40&quot; y=&quot;242&quot; width=&quot;78&quot; height=&quot;76&quot; as=&quot;geometry&quot; /&gt;&#10;        &lt;/mxCell&gt;&#10;        &lt;mxCell id=&quot;8nvRI29aEsvCDXP-nSqx-7&quot; value=&quot;&quot; style=&quot;endArrow=classic;html=1;rounded=0;entryX=0;entryY=0.75;entryDx=0;entryDy=0;entryPerimeter=0;&quot; parent=&quot;1&quot; edge=&quot;1&quot;&gt;&#10;          &lt;mxGeometry width=&quot;50&quot; height=&quot;50&quot; relative=&quot;1&quot; as=&quot;geometry&quot;&gt;&#10;            &lt;mxPoint x=&quot;358&quot; y=&quot;289.91&quot; as=&quot;sourcePoint&quot; /&gt;&#10;            &lt;mxPoint x=&quot;440&quot; y=&quot;290.41&quot; as=&quot;targetPoint&quot; /&gt;&#10;          &lt;/mxGeometry&gt;&#10;        &lt;/mxCell&gt;&#10;        &lt;mxCell id=&quot;8nvRI29aEsvCDXP-nSqx-8&quot; value=&quot;&quot; style=&quot;endArrow=classic;html=1;rounded=0;exitX=0;exitY=0.5;exitDx=0;exitDy=0;exitPerimeter=0;&quot; parent=&quot;1&quot; edge=&quot;1&quot;&gt;&#10;          &lt;mxGeometry width=&quot;50&quot; height=&quot;50&quot; relative=&quot;1&quot; as=&quot;geometry&quot;&gt;&#10;            &lt;mxPoint x=&quot;440&quot; y=&quot;270.9099999999999&quot; as=&quot;sourcePoint&quot; /&gt;&#10;            &lt;mxPoint x=&quot;360&quot; y=&quot;269.91&quot; as=&quot;targetPoint&quot; /&gt;&#10;          &lt;/mxGeometry&gt;&#10;        &lt;/mxCell&gt;&#10;        &lt;mxCell id=&quot;8nvRI29aEsvCDXP-nSqx-9&quot; value=&quot;&quot; style=&quot;endArrow=classic;html=1;rounded=0;entryX=0;entryY=0.75;entryDx=0;entryDy=0;entryPerimeter=0;&quot; parent=&quot;1&quot; edge=&quot;1&quot;&gt;&#10;          &lt;mxGeometry width=&quot;50&quot; height=&quot;50&quot; relative=&quot;1&quot; as=&quot;geometry&quot;&gt;&#10;            &lt;mxPoint x=&quot;518&quot; y=&quot;289.91&quot; as=&quot;sourcePoint&quot; /&gt;&#10;            &lt;mxPoint x=&quot;600&quot; y=&quot;289.91&quot; as=&quot;targetPoint&quot; /&gt;&#10;          &lt;/mxGeometry&gt;&#10;        &lt;/mxCell&gt;&#10;        &lt;mxCell id=&quot;8nvRI29aEsvCDXP-nSqx-10&quot; value=&quot;&quot; style=&quot;endArrow=classic;html=1;rounded=0;entryX=0;entryY=0.75;entryDx=0;entryDy=0;entryPerimeter=0;exitX=1.005;exitY=0.627;exitDx=0;exitDy=0;exitPerimeter=0;&quot; parent=&quot;1&quot; edge=&quot;1&quot;&gt;&#10;          &lt;mxGeometry width=&quot;50&quot; height=&quot;50&quot; relative=&quot;1&quot; as=&quot;geometry&quot;&gt;&#10;            &lt;mxPoint x=&quot;680.4000000000001&quot; y=&quot;282.9200000000001&quot; as=&quot;sourcePoint&quot; /&gt;&#10;            &lt;mxPoint x=&quot;749&quot; y=&quot;282.76&quot; as=&quot;targetPoint&quot; /&gt;&#10;            &lt;Array as=&quot;points&quot;&gt;&#10;              &lt;mxPoint x=&quot;730&quot; y=&quot;282.76&quot; /&gt;&#10;            &lt;/Array&gt;&#10;          &lt;/mxGeometry&gt;&#10;        &lt;/mxCell&gt;&#10;        &lt;mxCell id=&quot;8nvRI29aEsvCDXP-nSqx-11&quot; value=&quot;&quot; style=&quot;endArrow=classic;html=1;rounded=0;exitX=0;exitY=0.5;exitDx=0;exitDy=0;exitPerimeter=0;&quot; parent=&quot;1&quot; edge=&quot;1&quot;&gt;&#10;          &lt;mxGeometry width=&quot;50&quot; height=&quot;50&quot; relative=&quot;1&quot; as=&quot;geometry&quot;&gt;&#10;            &lt;mxPoint x=&quot;598&quot; y=&quot;270.41&quot; as=&quot;sourcePoint&quot; /&gt;&#10;            &lt;mxPoint x=&quot;518&quot; y=&quot;269.41&quot; as=&quot;targetPoint&quot; /&gt;&#10;          &lt;/mxGeometry&gt;&#10;        &lt;/mxCell&gt;&#10;        &lt;mxCell id=&quot;8nvRI29aEsvCDXP-nSqx-12&quot; value=&quot;&quot; style=&quot;endArrow=classic;html=1;rounded=0;entryX=0;entryY=0.75;entryDx=0;entryDy=0;entryPerimeter=0;&quot; parent=&quot;1&quot; edge=&quot;1&quot;&gt;&#10;          &lt;mxGeometry width=&quot;50&quot; height=&quot;50&quot; relative=&quot;1&quot; as=&quot;geometry&quot;&gt;&#10;            &lt;mxPoint x=&quot;200&quot; y=&quot;289.91&quot; as=&quot;sourcePoint&quot; /&gt;&#10;            &lt;mxPoint x=&quot;282&quot; y=&quot;289.91&quot; as=&quot;targetPoint&quot; /&gt;&#10;          &lt;/mxGeometry&gt;&#10;        &lt;/mxCell&gt;&#10;        &lt;mxCell id=&quot;8nvRI29aEsvCDXP-nSqx-13&quot; value=&quot;&quot; style=&quot;endArrow=classic;html=1;rounded=0;exitX=0;exitY=0.5;exitDx=0;exitDy=0;exitPerimeter=0;&quot; parent=&quot;1&quot; edge=&quot;1&quot;&gt;&#10;          &lt;mxGeometry width=&quot;50&quot; height=&quot;50&quot; relative=&quot;1&quot; as=&quot;geometry&quot;&gt;&#10;            &lt;mxPoint x=&quot;282&quot; y=&quot;270.91&quot; as=&quot;sourcePoint&quot; /&gt;&#10;            &lt;mxPoint x=&quot;202&quot; y=&quot;269.91&quot; as=&quot;targetPoint&quot; /&gt;&#10;          &lt;/mxGeometry&gt;&#10;        &lt;/mxCell&gt;&#10;        &lt;mxCell id=&quot;8nvRI29aEsvCDXP-nSqx-14&quot; value=&quot;&quot; style=&quot;endArrow=classic;html=1;rounded=0;entryX=0;entryY=0.75;entryDx=0;entryDy=0;entryPerimeter=0;&quot; parent=&quot;1&quot; edge=&quot;1&quot;&gt;&#10;          &lt;mxGeometry width=&quot;50&quot; height=&quot;50&quot; relative=&quot;1&quot; as=&quot;geometry&quot;&gt;&#10;            &lt;mxPoint x=&quot;38&quot; y=&quot;289.91&quot; as=&quot;sourcePoint&quot; /&gt;&#10;            &lt;mxPoint x=&quot;120&quot; y=&quot;289.91&quot; as=&quot;targetPoint&quot; /&gt;&#10;          &lt;/mxGeometry&gt;&#10;        &lt;/mxCell&gt;&#10;        &lt;mxCell id=&quot;8nvRI29aEsvCDXP-nSqx-15&quot; value=&quot;&quot; style=&quot;endArrow=classic;html=1;rounded=0;exitX=0;exitY=0.5;exitDx=0;exitDy=0;exitPerimeter=0;&quot; parent=&quot;1&quot; edge=&quot;1&quot;&gt;&#10;          &lt;mxGeometry width=&quot;50&quot; height=&quot;50&quot; relative=&quot;1&quot; as=&quot;geometry&quot;&gt;&#10;            &lt;mxPoint x=&quot;120&quot; y=&quot;270.91&quot; as=&quot;sourcePoint&quot; /&gt;&#10;            &lt;mxPoint x=&quot;40&quot; y=&quot;269.91&quot; as=&quot;targetPoint&quot; /&gt;&#10;          &lt;/mxGeometry&gt;&#10;        &lt;/mxCell&gt;&#10;      &lt;/root&gt;&#10;    &lt;/mxGraphModel&gt;&#10;  &lt;/diagram&gt;&#10;&lt;/mxfile&gt;&#10;"><defs/><g><g><path d="M 789 2 L 867 2 L 867 80 L 789 80 Z" fill="#7aa116" stroke="none" pointer-events="all"/><path d="M 851.28 44.22 L 851.71 41.21 C 855.66 43.57 855.71 44.55 855.71 44.58 C 855.7 44.58 855.03 45.14 851.28 44.22 Z M 849.12 43.62 C 842.3 41.56 832.8 37.2 828.96 35.39 C 828.96 35.37 828.96 35.36 828.96 35.34 C 828.96 33.86 827.76 32.66 826.28 32.66 C 824.81 32.66 823.61 33.86 823.61 35.34 C 823.61 36.82 824.81 38.02 826.28 38.02 C 826.93 38.02 827.52 37.78 827.98 37.39 C 832.51 39.53 841.93 43.82 848.8 45.85 L 846.08 65.03 C 846.07 65.08 846.07 65.13 846.07 65.18 C 846.07 66.87 838.6 69.97 826.39 69.97 C 814.05 69.97 806.49 66.87 806.49 65.18 C 806.49 65.13 806.49 65.08 806.48 65.03 L 800.81 23.57 C 805.72 26.95 816.29 28.74 826.39 28.74 C 836.48 28.74 847.03 26.96 851.96 23.59 Z M 800.21 19.25 C 800.29 17.78 808.71 12.03 826.39 12.03 C 844.07 12.03 852.5 17.78 852.58 19.25 L 852.58 19.75 C 851.61 23.04 840.69 26.51 826.39 26.51 C 812.07 26.51 801.15 23.02 800.21 19.73 Z M 854.81 19.27 C 854.81 15.41 843.74 9.8 826.39 9.8 C 809.05 9.8 797.98 15.41 797.98 19.27 L 798.08 20.11 L 804.27 65.27 C 804.41 70.32 817.88 72.2 826.39 72.2 C 836.94 72.2 848.15 69.77 848.3 65.27 L 850.97 46.44 C 852.45 46.8 853.68 46.98 854.66 46.98 C 855.98 46.98 856.87 46.66 857.41 46.01 C 857.85 45.48 858.02 44.85 857.89 44.16 C 857.61 42.62 855.77 40.96 852.05 38.83 L 854.69 20.16 Z" fill="#ffffff" stroke="none" pointer-events="all"/></g><g><image x="639.5" y="-0.5" width="80" height="80" xlink:href="https://cdn4.iconfinder.com/data/icons/office-time/512/3-128.png" preserveAspectRatio="none"/></g><g><path d="M 480 2 L 558 2 L 558 80 L 480 80 Z" fill="#01a88d" stroke="none" pointer-events="all"/><path d="M 545.72 39.91 C 544.5 39.91 543.5 38.91 543.5 37.68 C 543.5 36.45 544.5 35.45 545.72 35.45 C 546.95 35.45 547.95 36.45 547.95 37.68 C 547.95 38.91 546.95 39.91 545.72 39.91 Z M 510.22 69.87 L 506.6 67.76 L 514.02 63.12 L 512.84 61.23 L 504.43 66.49 L 497.84 62.65 L 497.84 52.75 L 504.03 48.63 L 502.79 46.78 L 496.68 50.85 L 490.05 47.06 L 490.05 41.67 L 497.28 37.53 L 496.18 35.6 L 490.05 39.1 L 490.05 34.99 L 496.73 31.17 L 503.41 34.99 L 503.41 39.28 L 498.38 42.29 L 499.53 44.2 L 504.52 41.21 L 509.52 44.2 L 510.67 42.29 L 505.64 39.28 L 505.64 34.94 L 511.82 30.81 C 512.13 30.61 512.32 30.26 512.32 29.89 L 512.32 22.09 L 510.09 22.09 L 510.09 29.29 L 504.48 33.03 L 497.84 29.24 L 497.84 19.39 L 503.41 16.14 L 503.41 25.43 L 505.64 25.43 L 505.64 14.84 L 510.22 12.17 L 519 15.1 L 519 47.07 L 502.84 56.77 L 503.98 58.68 L 519 49.67 L 519 66.94 Z M 543.5 52.16 C 543.5 53.39 542.5 54.38 541.27 54.38 C 540.04 54.38 539.04 53.39 539.04 52.16 C 539.04 50.93 540.04 49.93 541.27 49.93 C 542.5 49.93 543.5 50.93 543.5 52.16 Z M 532.36 63.29 C 532.36 64.52 531.36 65.52 530.14 65.52 C 528.91 65.52 527.91 64.52 527.91 63.29 C 527.91 62.06 528.91 61.06 530.14 61.06 C 531.36 61.06 532.36 62.06 532.36 63.29 Z M 531.25 18.75 C 531.25 17.52 532.25 16.52 533.48 16.52 C 534.7 16.52 535.7 17.52 535.7 18.75 C 535.7 19.98 534.7 20.98 533.48 20.98 C 532.25 20.98 531.25 19.98 531.25 18.75 Z M 545.72 33.23 C 543.65 33.23 541.93 34.65 541.43 36.57 L 521.23 36.57 L 521.23 31 L 533.48 31 C 534.09 31 534.59 30.5 534.59 29.89 L 534.59 23.05 C 536.5 22.55 537.93 20.82 537.93 18.75 C 537.93 16.3 535.93 14.3 533.48 14.3 C 531.02 14.3 529.02 16.3 529.02 18.75 C 529.02 20.82 530.45 22.55 532.36 23.05 L 532.36 28.77 L 521.23 28.77 L 521.23 14.3 C 521.23 13.82 520.92 13.39 520.47 13.24 L 510.44 9.9 C 510.14 9.8 509.81 9.83 509.53 9.99 L 496.17 17.79 C 495.83 17.99 495.62 18.36 495.62 18.75 L 495.62 29.24 L 488.38 33.37 C 488.04 33.57 487.82 33.94 487.82 34.34 L 487.82 47.7 C 487.82 48.1 488.04 48.47 488.38 48.67 L 495.62 52.8 L 495.62 63.29 C 495.62 63.69 495.83 64.05 496.17 64.25 L 509.53 72.05 C 509.7 72.15 509.9 72.2 510.09 72.2 C 510.21 72.2 510.33 72.18 510.44 72.14 L 520.47 68.8 C 520.92 68.65 521.23 68.23 521.23 67.75 L 521.23 54.38 L 529.02 54.38 L 529.02 59 C 527.11 59.49 525.68 61.22 525.68 63.29 C 525.68 65.75 527.68 67.75 530.14 67.75 C 532.59 67.75 534.59 65.75 534.59 63.29 C 534.59 61.22 533.16 59.49 531.25 59 L 531.25 53.27 C 531.25 52.66 530.75 52.16 530.14 52.16 L 521.23 52.16 L 521.23 46.59 L 535.15 46.59 L 537.53 49.76 C 537.08 50.46 536.82 51.27 536.82 52.16 C 536.82 54.61 538.81 56.61 541.27 56.61 C 543.73 56.61 545.72 54.61 545.72 52.16 C 545.72 49.7 543.73 47.7 541.27 47.7 C 540.51 47.7 539.8 47.91 539.18 48.25 L 536.59 44.81 C 536.38 44.53 536.05 44.36 535.7 44.36 L 521.23 44.36 L 521.23 38.79 L 541.43 38.79 C 541.93 40.71 543.65 42.14 545.72 42.14 C 548.18 42.14 550.18 40.14 550.18 37.68 C 550.18 35.22 548.18 33.23 545.72 33.23 Z" fill="#ffffff" stroke="none" pointer-events="all"/></g><g><path d="M 320 4 L 398 4 L 398 82 L 320 82 Z" fill="#ed7100" stroke="none" pointer-events="all"/><path d="M 345.67 71.97 L 331.83 71.97 L 347.13 39.99 L 354.06 54.26 Z M 348.13 36.93 C 347.94 36.55 347.55 36.3 347.13 36.3 L 347.12 36.3 C 346.69 36.3 346.3 36.55 346.12 36.94 L 329.05 72.61 C 328.89 72.95 328.91 73.36 329.11 73.68 C 329.32 74 329.68 74.2 330.06 74.2 L 346.37 74.2 C 346.8 74.2 347.2 73.95 347.38 73.56 L 356.31 54.73 C 356.46 54.43 356.46 54.07 356.31 53.77 Z M 386.88 71.97 L 373.13 71.97 L 351.08 25.81 C 350.9 25.42 350.5 25.17 350.07 25.17 L 341.08 25.17 L 341.09 14.03 L 358.72 14.03 L 380.67 60.19 C 380.85 60.58 381.25 60.83 381.68 60.83 L 386.88 60.83 Z M 388 58.6 L 382.38 58.6 L 360.43 12.44 C 360.25 12.05 359.85 11.8 359.42 11.8 L 339.97 11.8 C 339.36 11.8 338.86 12.3 338.85 12.91 L 338.84 26.28 C 338.84 26.58 338.96 26.86 339.17 27.07 C 339.38 27.28 339.66 27.4 339.96 27.4 L 349.37 27.4 L 371.42 73.56 C 371.61 73.95 372 74.2 372.43 74.2 L 388 74.2 C 388.61 74.2 389.11 73.7 389.11 73.09 L 389.11 59.71 C 389.11 59.1 388.61 58.6 388 58.6 Z" fill="#ffffff" stroke="none" pointer-events="all"/></g><g><path d="M 160 2 L 240 2 L 240 82 L 160 82 Z" fill="#8c4fff" stroke="none" pointer-events="all"/><path d="M 193.22 59.88 L 196.57 59.88 L 196.57 57.58 L 193.22 57.58 Z M 198.86 59.88 L 202.28 59.88 L 202.28 57.58 L 198.86 57.58 Z M 185.16 13.06 L 170.31 20.43 L 170.31 66.23 L 185.16 71.25 Z M 187.44 27.63 L 187.44 57.58 L 190.87 57.58 L 190.87 59.88 L 187.44 59.88 L 187.44 72.85 C 187.44 73.22 187.26 73.57 186.96 73.78 C 186.77 73.93 186.53 74 186.3 74 C 186.18 74 186.05 73.98 185.93 73.94 L 168.81 68.15 C 168.34 67.99 168.03 67.55 168.03 67.06 L 168.03 19.71 C 168.03 19.27 168.28 18.87 168.67 18.68 L 185.79 10.18 C 186.15 10 186.57 10.02 186.9 10.23 C 187.24 10.44 187.44 10.81 187.44 11.21 L 187.44 25.33 L 190.87 25.33 L 190.87 27.63 Z M 204.57 59.88 L 207.99 59.88 L 207.99 57.58 L 204.57 57.58 Z M 204.64 27.63 L 207.99 27.63 L 207.99 25.33 L 204.64 25.33 Z M 198.93 27.63 L 202.28 27.63 L 202.28 25.33 L 198.93 25.33 Z M 193.22 27.63 L 196.57 27.63 L 196.57 25.33 L 193.22 25.33 Z M 229.69 20.43 L 214.84 13.06 L 214.84 71.25 L 229.69 66.23 Z M 231.97 67.06 C 231.97 67.55 231.66 67.99 231.19 68.15 L 214.07 73.94 C 213.95 73.98 213.82 74 213.7 74 C 213.47 74 213.23 73.93 213.04 73.78 C 212.74 73.57 212.56 73.22 212.56 72.85 L 212.56 59.88 L 210.35 59.88 L 210.35 57.58 L 212.56 57.58 L 212.56 27.63 L 210.35 27.63 L 210.35 25.33 L 212.56 25.33 L 212.56 11.21 C 212.56 10.81 212.76 10.44 213.1 10.23 C 213.43 10.02 213.85 10 214.21 10.18 L 231.33 18.68 C 231.72 18.87 231.97 19.27 231.97 19.71 Z M 203.35 34.96 L 201.22 34.13 L 195.51 49.1 L 197.64 49.93 Z M 211.08 42.27 C 211.53 41.82 211.53 41.09 211.08 40.64 L 206.52 36.03 L 204.9 37.66 L 208.66 41.45 L 204.9 45.25 L 206.52 46.87 Z M 193.48 46.87 L 188.92 42.27 C 188.47 41.82 188.47 41.09 188.92 40.64 L 193.48 36.03 L 195.1 37.66 L 191.34 41.45 L 195.1 45.25 Z" fill="#ffffff" stroke="none" pointer-events="all"/></g><g><rect x="0" y="2" width="78" height="76" fill="none" stroke="none" pointer-events="all"/><path d="M 73 2 L 5.01 2 C 2.43 2 0.34 4.09 0.34 6.67 L 0.34 51.56 C 0.34 54.13 2.43 56.22 5.01 56.22 L 73 56.22 C 75.57 56.22 77.66 54.13 77.66 51.56 L 77.66 6.67 C 77.66 4.09 75.57 2 73 2 Z M 74.13 51.56 C 74.13 52.18 73.62 52.69 73 52.69 L 5.01 52.69 C 4.38 52.69 3.87 52.18 3.87 51.56 L 3.87 6.67 C 3.87 6.04 4.38 5.53 5.01 5.53 L 73 5.53 C 73.62 5.53 74.13 6.04 74.13 6.67 Z M 68.92 8.18 L 9.03 8.18 C 7.64 8.18 6.52 9.31 6.52 10.69 L 6.52 47.53 C 6.52 48.92 7.64 50.04 9.03 50.04 L 68.92 50.04 C 70.3 50.04 71.43 48.92 71.43 47.53 L 71.43 10.69 C 71.43 9.31 70.3 8.18 68.92 8.18 Z M 10.05 46.51 L 10.05 11.71 L 67.9 11.71 L 67.9 46.51 Z M 73 59.15 L 5.01 59.15 C 2.43 59.15 0.34 61.24 0.34 63.82 L 0.34 73.33 C 0.34 75.9 2.43 78 5.01 78 L 73 78 C 75.57 78 77.66 75.9 77.66 73.33 L 77.66 63.82 C 77.66 61.24 75.57 59.15 73 59.15 Z M 74.13 73.33 C 74.13 73.96 73.62 74.47 73 74.47 L 5.01 74.47 C 4.38 74.47 3.87 73.96 3.87 73.33 L 3.87 63.82 C 3.87 63.19 4.38 62.68 5.01 62.68 L 73 62.68 C 73.62 62.68 74.13 63.19 74.13 63.82 Z M 71.49 66.93 L 71.49 70.32 C 71.49 71.1 70.86 71.72 70.09 71.72 L 51.12 71.72 C 50.34 71.72 49.72 71.1 49.72 70.32 L 49.72 66.93 C 49.72 66.15 50.34 65.53 51.12 65.53 L 70.09 65.53 C 70.86 65.53 71.49 66.15 71.49 66.93 Z" fill="#232f3d" stroke="none" pointer-events="all"/></g><g><path d="M 398 49.91 L 473.63 50.37" fill="none" stroke="rgb(0, 0, 0)" stroke-miterlimit="10" pointer-events="stroke"/><path d="M 478.88 50.4 L 471.86 53.86 L 473.63 50.37 L 471.9 46.86 Z" fill="rgb(0, 0, 0)" stroke="rgb(0, 0, 0)" stroke-miterlimit="10" pointer-events="all"/></g><g><path d="M 480 30.91 L 406.37 29.99" fill="none" stroke="rgb(0, 0, 0)" stroke-miterlimit="10" pointer-events="stroke"/><path d="M 401.12 29.92 L 408.16 26.51 L 406.37 29.99 L 408.07 33.51 Z" fill="rgb(0, 0, 0)" stroke="rgb(0, 0, 0)" stroke-miterlimit="10" pointer-events="all"/></g><g><path d="M 558 49.91 L 633.63 49.91" fill="none" stroke="rgb(0, 0, 0)" stroke-miterlimit="10" pointer-events="stroke"/><path d="M 638.88 49.91 L 631.88 53.41 L 633.63 49.91 L 631.88 46.41 Z" fill="rgb(0, 0, 0)" stroke="rgb(0, 0, 0)" stroke-miterlimit="10" pointer-events="all"/></g><g><path d="M 720.4 42.92 L 770 42.76 L 782.63 42.76" fill="none" stroke="rgb(0, 0, 0)" stroke-miterlimit="10" pointer-events="stroke"/><path d="M 787.88 42.76 L 780.88 46.26 L 782.63 42.76 L 780.88 39.26 Z" fill="rgb(0, 0, 0)" stroke="rgb(0, 0, 0)" stroke-miterlimit="10" pointer-events="all"/></g><g><path d="M 638 30.41 L 564.37 29.49" fill="none" stroke="rgb(0, 0, 0)" stroke-miterlimit="10" pointer-events="stroke"/><path d="M 559.12 29.42 L 566.16 26.01 L 564.37 29.49 L 566.07 33.01 Z" fill="rgb(0, 0, 0)" stroke="rgb(0, 0, 0)" stroke-miterlimit="10" pointer-events="all"/></g><g><path d="M 240 49.91 L 315.63 49.91" fill="none" stroke="rgb(0, 0, 0)" stroke-miterlimit="10" pointer-events="stroke"/><path d="M 320.88 49.91 L 313.88 53.41 L 315.63 49.91 L 313.88 46.41 Z" fill="rgb(0, 0, 0)" stroke="rgb(0, 0, 0)" stroke-miterlimit="10" pointer-events="all"/></g><g><path d="M 322 30.91 L 248.37 29.99" fill="none" stroke="rgb(0, 0, 0)" stroke-miterlimit="10" pointer-events="stroke"/><path d="M 243.12 29.92 L 250.16 26.51 L 248.37 29.99 L 250.07 33.51 Z" fill="rgb(0, 0, 0)" stroke="rgb(0, 0, 0)" stroke-miterlimit="10" pointer-events="all"/></g><g><path d="M 78 49.91 L 153.63 49.91" fill="none" stroke="rgb(0, 0, 0)" stroke-miterlimit="10" pointer-events="stroke"/><path d="M 158.88 49.91 L 151.88 53.41 L 153.63 49.91 L 151.88 46.41 Z" fill="rgb(0, 0, 0)" stroke="rgb(0, 0, 0)" stroke-miterlimit="10" pointer-events="all"/></g><g><path d="M 160 30.91 L 86.37 29.99" fill="none" stroke="rgb(0, 0, 0)" stroke-miterlimit="10" pointer-events="stroke"/><path d="M 81.12 29.92 L 88.16 26.51 L 86.37 29.99 L 88.07 33.51 Z" fill="rgb(0, 0, 0)" stroke="rgb(0, 0, 0)" stroke-miterlimit="10" pointer-events="all"/></g></g></svg>